<svg width="44" height="48" viewBox="0 0 44 48" fill="none" xmlns="http://www.w3.org/2000/svg">
<path d="M6.25344 20.6779C-0.307674 16.1903 -0.307669 1.16513 11.9908 1.61959C22.6135 1.61958 25.397 14.2021 17.1318 21.388M19.0723 19.3613C22.3954 19.3613 23.8632 28.2331 19.3756 31.6414M4.20522 18.6797C-1.81622 20.3838 2.64625 41.6109 6.25344 45.218C13.001 48.9134 20.7439 45.286 37.9795 33.8853L42.7512 27.4094L40.4789 22.0129L35.7196 24.133M15.4276 31.6414C27.0159 31.6414 27.8112 34.7942 31.8729 30.9314M32.9522 33.8853C31.8729 28.2331 34.6403 28.2331 34.9972 22.0129L36.0263 28.2331M36.2753 29.7385L36.0263 28.2331M36.0263 28.2331L38.6044 26.4153" stroke="white" stroke-width="1.59056" stroke-linecap="round" stroke-linejoin="round"/>
</svg>
