<svg width="29" height="29" viewBox="0 0 29 29" fill="none" xmlns="http://www.w3.org/2000/svg">
<path d="M10.5118 1C10.5574 2.42858 10.4591 3.00175 10.0386 3.5688C4.36502 4.86797 1.88038 5.78811 0 8.1318M17.3732 1C17.1818 2.17773 17.1601 2.80085 17.914 3.5688C24.4486 5.0712 27.013 6.02997 27.885 8.1318M16.2578 8.9092C16.7071 12.839 17.9743 13.8688 21.6996 14.013M11.6272 8.9092C11.2588 12.7332 10.0102 13.7747 6.253 14.013M1.4872 18.4746C2.57189 17.487 2.76397 16.4494 2.6026 14.013C2.73732 17.1846 3.15502 18.8893 4.563 21.787C5.79855 23.7872 5.98809 25.4449 6.253 28.4794M26.6006 18.4746C25.3702 17.2768 25.0912 16.3835 25.2824 14.4186C25.2102 17.3201 24.7651 18.9318 23.4572 21.787C22.229 24.015 21.898 25.5187 21.6996 28.4794M13.9256 28.4794V21.787M13.9256 19.1844V17.4944" stroke="white"/>
</svg>
