<svg width="30" height="47" viewBox="0 0 30 47" fill="none" xmlns="http://www.w3.org/2000/svg">
<path d="M9.92249 46.1095C12.1196 42.7427 13.2085 40.2545 13.7503 36.7331M6.2563 12.7245C10.7634 17.9718 13.6251 20.1583 19.6557 21.9711C20.5575 23.2146 20.599 23.8454 19.6557 24.8262C16.7237 26.7954 15.5926 28.6057 14.1402 32.6127C14.0605 34.164 13.9384 35.5108 13.7503 36.7331M2.23323 1.1095C-0.524545 6.13834 2.91449 12.0432 9.01405 12.0432M14.1402 6.917C16.0535 9.38359 17.2624 10.3529 19.6557 11.3618M20.1424 19.0187C22.3565 20.6373 22.9787 21.6967 22.6081 23.9502M14.1402 1.79082C22.1574 7.99773 25.7285 11.4855 26.5339 17.7533C28.9393 19.6088 29.4151 20.9038 27.7343 23.9502M27.7343 23.9502H25.9499M27.7343 23.9502C27.7366 26.0857 27.3835 27.2727 25.9499 29.3683C24.1723 31.5643 23.0273 32.8179 20.8237 35.0785L16.2166 44.1304V46.1095M13.7503 36.7331L20.1424 31.8341" stroke="white" stroke-width="1.16799"/>
</svg>
