<svg width="100" height="31" viewBox="0 0 100 31" fill="none" xmlns="http://www.w3.org/2000/svg">
<rect x="0.5" y="0.5" width="99" height="30" rx="15" stroke="white"/>
<path d="M20.08 10.0401V15.0801L23.44 16.7601M28.48 15.0801C28.48 19.7192 24.7192 23.4801 20.08 23.4801C15.4408 23.4801 11.68 19.7192 11.68 15.0801C11.68 10.4409 15.4408 6.68005 20.08 6.68005C24.7192 6.68005 28.48 10.4409 28.48 15.0801Z" stroke="white" stroke-width="1.68" stroke-linecap="round" stroke-linejoin="round"/>
<path d="M40.1335 21V20.3189L43.4595 16.5803C43.8937 16.0897 44.2434 15.6705 44.5085 15.3224C44.7737 14.9744 44.9659 14.6529 45.0852 14.358C45.2079 14.063 45.2692 13.7564 45.2692 13.4382C45.2692 13.0504 45.178 12.7124 44.9957 12.424C44.8168 12.1323 44.5698 11.9053 44.255 11.7429C43.9401 11.5805 43.5855 11.4993 43.1911 11.4993C42.7734 11.4993 42.4072 11.5888 42.0923 11.7678C41.7808 11.9467 41.5388 12.192 41.3665 12.5036C41.1941 12.8151 41.108 13.1731 41.108 13.5774H40.218C40.218 13.014 40.3473 12.5152 40.6058 12.081C40.8677 11.6435 41.224 11.3004 41.6747 11.0518C42.1288 10.8033 42.6425 10.679 43.2159 10.679C43.7827 10.679 44.2865 10.8016 44.7273 11.0469C45.1681 11.2888 45.5144 11.6186 45.7663 12.0362C46.0182 12.4538 46.1442 12.9212 46.1442 13.4382C46.1442 13.8127 46.0779 14.1757 45.9453 14.527C45.8161 14.8783 45.5923 15.2694 45.2741 15.7003C44.956 16.1312 44.5152 16.6581 43.9517 17.2812L41.4261 20.1001V20.1648H46.4624V21H40.1335ZM53.5357 16.2273V21H52.6507V10.8182H53.5357V14.5618H53.6152C53.7942 14.1674 54.071 13.8525 54.4455 13.6172C54.8233 13.3819 55.3006 13.2642 55.8773 13.2642C56.3944 13.2642 56.8484 13.3703 57.2395 13.5824C57.6306 13.7945 57.9355 14.1077 58.1543 14.522C58.373 14.9363 58.4824 15.4467 58.4824 16.0533V21H57.5925V16.108C57.5925 15.4782 57.4168 14.9827 57.0655 14.6214C56.7175 14.2569 56.2469 14.0746 55.6536 14.0746C55.2459 14.0746 54.883 14.1607 54.5648 14.3331C54.2466 14.5054 53.9947 14.754 53.8091 15.0788C53.6268 15.4003 53.5357 15.7831 53.5357 16.2273ZM63.7809 21.1591C63.1213 21.1591 62.538 20.9917 62.0309 20.657C61.5271 20.3222 61.1327 19.8598 60.8477 19.2699C60.5626 18.6766 60.4201 17.9922 60.4201 17.2166C60.4201 16.4344 60.5626 15.7467 60.8477 15.1534C61.1327 14.5568 61.5271 14.0928 62.0309 13.7614C62.538 13.4266 63.1213 13.2592 63.7809 13.2592C64.4405 13.2592 65.0221 13.4266 65.5259 13.7614C66.0297 14.0961 66.4241 14.5601 66.7092 15.1534C66.9975 15.7467 67.1417 16.4344 67.1417 17.2166C67.1417 17.9922 66.9992 18.6766 66.7141 19.2699C66.4291 19.8598 66.033 20.3222 65.5259 20.657C65.0221 20.9917 64.4405 21.1591 63.7809 21.1591ZM63.7809 20.3487C64.3112 20.3487 64.7603 20.2062 65.1282 19.9212C65.4961 19.6361 65.7745 19.2566 65.9634 18.7827C66.1557 18.3087 66.2518 17.7867 66.2518 17.2166C66.2518 16.6465 66.1557 16.1229 65.9634 15.6456C65.7745 15.1683 65.4961 14.7855 65.1282 14.4972C64.7603 14.2088 64.3112 14.0646 63.7809 14.0646C63.2539 14.0646 62.8048 14.2088 62.4336 14.4972C62.0657 14.7855 61.7856 15.1683 61.5934 15.6456C61.4045 16.1229 61.31 16.6465 61.31 17.2166C61.31 17.7867 61.4045 18.3087 61.5934 18.7827C61.7856 19.2566 62.0657 19.6361 62.4336 19.9212C62.8015 20.2062 63.2506 20.3487 63.7809 20.3487ZM73.9366 18.0817V13.3636H74.8216V21H73.9366V19.7322H73.867C73.688 20.1233 73.4047 20.4498 73.0169 20.7116C72.6291 20.9702 72.1551 21.0994 71.595 21.0994C71.1078 21.0994 70.6752 20.9934 70.2974 20.7812C69.9196 20.5658 69.6229 20.2509 69.4075 19.8366C69.1921 19.4223 69.0843 18.9136 69.0843 18.3104V13.3636H69.9693V18.2557C69.9693 18.8523 70.1449 19.3329 70.4963 19.6974C70.8476 20.0587 71.2984 20.2393 71.8485 20.2393C72.1932 20.2393 72.5247 20.1565 72.8429 19.9908C73.161 19.825 73.4229 19.5831 73.6284 19.2649C73.8339 18.9434 73.9366 18.549 73.9366 18.0817ZM77.1644 21V13.3636H78.0245V14.5369H78.0891C78.2416 14.1525 78.5067 13.8426 78.8846 13.6072C79.2657 13.3686 79.6966 13.2493 80.1772 13.2493C80.2501 13.2493 80.3313 13.2509 80.4208 13.2543C80.5103 13.2576 80.5849 13.2609 80.6445 13.2642V14.1641C80.6048 14.1574 80.5352 14.1475 80.4357 14.1342C80.3363 14.121 80.2286 14.1143 80.1126 14.1143C79.7148 14.1143 79.3602 14.1989 79.0487 14.3679C78.7404 14.5336 78.4968 14.764 78.3178 15.0589C78.1388 15.3539 78.0494 15.6903 78.0494 16.0682V21H77.1644ZM87.2853 15.0391L86.475 15.2678C86.3954 15.0391 86.2827 14.8319 86.1369 14.6463C85.9911 14.4607 85.8005 14.3132 85.5652 14.2038C85.3332 14.0945 85.0448 14.0398 84.7001 14.0398C84.1831 14.0398 83.7588 14.1624 83.4274 14.4077C83.0959 14.6529 82.9302 14.9695 82.9302 15.3572C82.9302 15.6854 83.0429 15.9522 83.2683 16.1577C83.497 16.3598 83.8483 16.5206 84.3223 16.6399L85.4757 16.9233C86.1154 17.0791 86.5943 17.326 86.9125 17.6641C87.234 18.0021 87.3947 18.4264 87.3947 18.9368C87.3947 19.3677 87.2754 19.7505 87.0368 20.0852C86.7981 20.42 86.465 20.6835 86.0375 20.8757C85.6132 21.0646 85.121 21.1591 84.5609 21.1591C83.8152 21.1591 83.2003 20.9917 82.7164 20.657C82.2325 20.3189 81.9226 19.8317 81.7868 19.1953L82.6369 18.9865C82.7463 19.4406 82.96 19.7836 83.2782 20.0156C83.5997 20.2476 84.0223 20.3636 84.546 20.3636C85.1326 20.3636 85.6016 20.2327 85.9529 19.9709C86.3043 19.7057 86.4799 19.3743 86.4799 18.9766C86.4799 18.6683 86.3772 18.4098 86.1717 18.201C85.9662 17.9889 85.6547 17.8331 85.237 17.7337L83.9892 17.4354C83.3263 17.2763 82.8358 17.0244 82.5176 16.6797C82.1994 16.335 82.0403 15.9074 82.0403 15.397C82.0403 14.9761 82.1547 14.6065 82.3833 14.2884C82.612 13.9669 82.9269 13.715 83.3279 13.5327C83.729 13.3504 84.1864 13.2592 84.7001 13.2592C85.3994 13.2592 85.9579 13.4183 86.3755 13.7365C86.7965 14.0514 87.0997 14.4856 87.2853 15.0391Z" fill="white"/>
</svg>
